<mxfile>
    <diagram id="4ryx9A-iHDnifQTzd0x5" name="Page-1">
        <mxGraphModel dx="315" dy="521" grid="1" gridSize="10" guides="1" tooltips="1" connect="1" arrows="1" fold="1" page="1" pageScale="1" pageWidth="850" pageHeight="1100" math="0" shadow="0">
            <root>
                <mxCell id="0"/>
                <mxCell id="1" parent="0"/>
                <mxCell id="14" value="USER" style="swimlane;fontStyle=0;childLayout=stackLayout;horizontal=1;startSize=26;fillColor=none;horizontalStack=0;resizeParent=1;resizeParentMax=0;resizeLast=0;collapsible=1;marginBottom=0;fontSize=10;" parent="1" vertex="1">
                    <mxGeometry x="20" y="80" width="270" height="120" as="geometry"/>
                </mxCell>
                <mxCell id="15" value="Email: String" style="text;strokeColor=none;fillColor=none;align=left;verticalAlign=top;spacingLeft=4;spacingRight=4;overflow=hidden;rotatable=0;points=[[0,0.5],[1,0.5]];portConstraint=eastwest;" parent="14" vertex="1">
                    <mxGeometry y="26" width="270" height="26" as="geometry"/>
                </mxCell>
                <mxCell id="16" value="Password: string&#10;&#10;Inventory: [Sneaker]" style="text;strokeColor=none;fillColor=none;align=left;verticalAlign=top;spacingLeft=4;spacingRight=4;overflow=hidden;rotatable=0;points=[[0,0.5],[1,0.5]];portConstraint=eastwest;" parent="14" vertex="1">
                    <mxGeometry y="52" width="270" height="68" as="geometry"/>
                </mxCell>
                <mxCell id="23" value="" style="edgeStyle=elbowEdgeStyle;elbow=vertical;endArrow=classic;html=1;fontSize=10;exitX=0.622;exitY=1.059;exitDx=0;exitDy=0;exitPerimeter=0;" parent="1" source="16" edge="1">
                    <mxGeometry width="50" height="50" relative="1" as="geometry">
                        <mxPoint x="440" y="370" as="sourcePoint"/>
                        <mxPoint x="490" y="320" as="targetPoint"/>
                    </mxGeometry>
                </mxCell>
                <mxCell id="24" value="Sneaker" style="swimlane;fontStyle=0;childLayout=stackLayout;horizontal=1;startSize=20;fillColor=none;horizontalStack=0;resizeParent=1;resizeParentMax=0;resizeLast=0;collapsible=1;marginBottom=0;rotation=0;" parent="1" vertex="1">
                    <mxGeometry x="410" y="320" width="210" height="126" as="geometry">
                        <mxRectangle x="410" y="320" width="80" height="26" as="alternateBounds"/>
                    </mxGeometry>
                </mxCell>
                <mxCell id="25" value="Style: String" style="text;strokeColor=none;fillColor=none;align=left;verticalAlign=top;spacingLeft=4;spacingRight=4;overflow=hidden;rotatable=0;points=[[0,0.5],[1,0.5]];portConstraint=eastwest;rotation=0;" parent="24" vertex="1">
                    <mxGeometry y="20" width="210" height="26" as="geometry"/>
                </mxCell>
                <mxCell id="26" value="Size: num" style="text;strokeColor=none;fillColor=none;align=left;verticalAlign=top;spacingLeft=4;spacingRight=4;overflow=hidden;rotatable=0;points=[[0,0.5],[1,0.5]];portConstraint=eastwest;rotation=0;" parent="24" vertex="1">
                    <mxGeometry y="46" width="210" height="22" as="geometry"/>
                </mxCell>
                <mxCell id="27" value="Condition DS:  Boolean&#10;&#10;Quantity:  num" style="text;strokeColor=none;fillColor=none;align=left;verticalAlign=top;spacingLeft=4;spacingRight=4;overflow=hidden;rotatable=0;points=[[0,0.5],[1,0.5]];portConstraint=eastwest;rotation=0;" parent="24" vertex="1">
                    <mxGeometry y="68" width="210" height="58" as="geometry"/>
                </mxCell>
            </root>
        </mxGraphModel>
    </diagram>
    <diagram id="YsSVMh-i9Mu2v_oFByIP" name="Page-2">
        &#xa;
        <mxGraphModel dx="923" dy="582" grid="1" gridSize="10" guides="1" tooltips="1" connect="1" arrows="1" fold="1" page="1" pageScale="1" pageWidth="850" pageHeight="1100" math="0" shadow="0">
            &#xa;
            <root>
                &#xa;
                <mxCell id="MYR99tMaJsPfmAdh7MCf-0"/>
                &#xa;
                <mxCell id="MYR99tMaJsPfmAdh7MCf-1" parent="MYR99tMaJsPfmAdh7MCf-0"/>
                &#xa;
                <mxCell id="MYR99tMaJsPfmAdh7MCf-2" value="Home page&lt;br&gt;&quot;Login&quot;" style="text;html=1;strokeColor=none;fillColor=none;align=center;verticalAlign=middle;whiteSpace=wrap;rounded=0;fontSize=22;" parent="MYR99tMaJsPfmAdh7MCf-1" vertex="1">
                    &#xa;
                    <mxGeometry x="110" y="200" width="190" height="90" as="geometry"/>
                    &#xa;
                </mxCell>
                &#xa;
                <mxCell id="MYR99tMaJsPfmAdh7MCf-7" value="" style="endArrow=classic;html=1;fontSize=22;" parent="MYR99tMaJsPfmAdh7MCf-1" source="MYR99tMaJsPfmAdh7MCf-2" edge="1">
                    &#xa;
                    <mxGeometry width="50" height="50" relative="1" as="geometry">
                        &#xa;
                        <mxPoint x="360" y="630" as="sourcePoint"/>
                        &#xa;
                        <mxPoint x="350" y="420" as="targetPoint"/>
                        &#xa;
                    </mxGeometry>
                    &#xa;
                </mxCell>
                &#xa;
                <mxCell id="MYR99tMaJsPfmAdh7MCf-10" style="edgeStyle=orthogonalEdgeStyle;rounded=0;orthogonalLoop=1;jettySize=auto;html=1;fontSize=22;" parent="MYR99tMaJsPfmAdh7MCf-1" edge="1">
                    &#xa;
                    <mxGeometry relative="1" as="geometry">
                        &#xa;
                        <mxPoint x="384.5" y="690" as="targetPoint"/>
                        &#xa;
                        <mxPoint x="384.5" y="580" as="sourcePoint"/>
                        &#xa;
                        <Array as="points">
                            &#xa;
                            <mxPoint x="384.5" y="670"/>
                            &#xa;
                            <mxPoint x="384.5" y="670"/>
                            &#xa;
                        </Array>
                        &#xa;
                    </mxGeometry>
                    &#xa;
                </mxCell>
                &#xa;
                <mxCell id="MYR99tMaJsPfmAdh7MCf-15" style="edgeStyle=orthogonalEdgeStyle;rounded=0;orthogonalLoop=1;jettySize=auto;html=1;exitX=0.5;exitY=1;exitDx=0;exitDy=0;fontSize=22;" parent="MYR99tMaJsPfmAdh7MCf-1" source="MYR99tMaJsPfmAdh7MCf-8" edge="1">
                    &#xa;
                    <mxGeometry relative="1" as="geometry">
                        &#xa;
                        <mxPoint x="385" y="500" as="targetPoint"/>
                        &#xa;
                    </mxGeometry>
                    &#xa;
                </mxCell>
                &#xa;
                <mxCell id="MYR99tMaJsPfmAdh7MCf-8" value="&lt;font style=&quot;font-size: 22px&quot;&gt;Inventory&lt;br&gt;&lt;br&gt;User listing&lt;br&gt;&lt;/font&gt;" style="text;html=1;strokeColor=none;fillColor=none;align=center;verticalAlign=middle;whiteSpace=wrap;rounded=0;" parent="MYR99tMaJsPfmAdh7MCf-1" vertex="1">
                    &#xa;
                    <mxGeometry x="300" y="430" width="170" height="70" as="geometry"/>
                    &#xa;
                </mxCell>
                &#xa;
                <mxCell id="MYR99tMaJsPfmAdh7MCf-11" value="" style="line;strokeWidth=2;html=1;fontSize=22;" parent="MYR99tMaJsPfmAdh7MCf-1" vertex="1">
                    &#xa;
                    <mxGeometry x="125" y="240" width="160" height="10" as="geometry"/>
                    &#xa;
                </mxCell>
                &#xa;
                <mxCell id="MYR99tMaJsPfmAdh7MCf-16" value="" style="line;strokeWidth=2;html=1;fontSize=22;" parent="MYR99tMaJsPfmAdh7MCf-1" vertex="1">
                    &#xa;
                    <mxGeometry x="300" y="460" width="160" height="10" as="geometry"/>
                    &#xa;
                </mxCell>
                &#xa;
                <mxCell id="MYR99tMaJsPfmAdh7MCf-19" value="" style="endArrow=none;dashed=1;html=1;dashPattern=1 3;strokeWidth=2;fontSize=22;" parent="MYR99tMaJsPfmAdh7MCf-1" edge="1">
                    &#xa;
                    <mxGeometry width="50" height="50" relative="1" as="geometry">
                        &#xa;
                        <mxPoint x="330" y="520" as="sourcePoint"/>
                        &#xa;
                        <mxPoint x="450" y="520" as="targetPoint"/>
                        &#xa;
                    </mxGeometry>
                    &#xa;
                </mxCell>
                &#xa;
                <mxCell id="MYR99tMaJsPfmAdh7MCf-20" value="&lt;font style=&quot;font-size: 20px&quot;&gt;Add to inventory button&lt;/font&gt;" style="text;html=1;strokeColor=none;fillColor=none;align=center;verticalAlign=middle;whiteSpace=wrap;rounded=0;fontSize=22;" parent="MYR99tMaJsPfmAdh7MCf-1" vertex="1">
                    &#xa;
                    <mxGeometry x="281.25" y="530" width="197.5" height="30" as="geometry"/>
                    &#xa;
                </mxCell>
                &#xa;
                <mxCell id="MYR99tMaJsPfmAdh7MCf-21" value="Add to Inventory Page&amp;nbsp;" style="text;html=1;strokeColor=none;fillColor=none;align=center;verticalAlign=middle;whiteSpace=wrap;rounded=0;fontSize=22;" parent="MYR99tMaJsPfmAdh7MCf-1" vertex="1">
                    &#xa;
                    <mxGeometry x="290" y="700" width="190" height="70" as="geometry"/>
                    &#xa;
                </mxCell>
                &#xa;
                <mxCell id="MYR99tMaJsPfmAdh7MCf-28" value="" style="endArrow=none;dashed=1;html=1;fontSize=22;" parent="MYR99tMaJsPfmAdh7MCf-1" edge="1">
                    &#xa;
                    <mxGeometry width="50" height="50" relative="1" as="geometry">
                        &#xa;
                        <mxPoint x="310" y="830" as="sourcePoint"/>
                        &#xa;
                        <mxPoint x="450" y="830" as="targetPoint"/>
                        &#xa;
                        <Array as="points"/>
                        &#xa;
                    </mxGeometry>
                    &#xa;
                </mxCell>
                &#xa;
                <mxCell id="MYR99tMaJsPfmAdh7MCf-30" value="add button" style="text;html=1;strokeColor=none;fillColor=none;align=center;verticalAlign=middle;whiteSpace=wrap;rounded=0;fontSize=22;" parent="MYR99tMaJsPfmAdh7MCf-1" vertex="1">
                    &#xa;
                    <mxGeometry x="290" y="830" width="200" height="50" as="geometry"/>
                    &#xa;
                </mxCell>
                &#xa;
                <mxCell id="MYR99tMaJsPfmAdh7MCf-31" value="form for inventory" style="text;html=1;strokeColor=none;fillColor=none;align=center;verticalAlign=middle;whiteSpace=wrap;rounded=0;fontSize=22;" parent="MYR99tMaJsPfmAdh7MCf-1" vertex="1">
                    &#xa;
                    <mxGeometry x="250" y="800" width="260" height="20" as="geometry"/>
                    &#xa;
                </mxCell>
                &#xa;
                <mxCell id="MYR99tMaJsPfmAdh7MCf-34" value="" style="endArrow=none;html=1;fontSize=22;" parent="MYR99tMaJsPfmAdh7MCf-1" edge="1">
                    &#xa;
                    <mxGeometry width="50" height="50" relative="1" as="geometry">
                        &#xa;
                        <mxPoint x="290" y="770" as="sourcePoint"/>
                        &#xa;
                        <mxPoint x="470" y="770" as="targetPoint"/>
                        &#xa;
                    </mxGeometry>
                    &#xa;
                </mxCell>
                &#xa;
            </root>
            &#xa;
        </mxGraphModel>
        &#xa;
    </diagram>
</mxfile>